<?xml version="1.0" encoding="utf-8"?>
<!-- Generator: Adobe Illustrator 18.1.1, SVG Export Plug-In . SVG Version: 6.00 Build 0)  -->
<svg version="1.1" id="Capa_1" xmlns="http://www.w3.org/2000/svg" xmlns:xlink="http://www.w3.org/1999/xlink" x="0px" y="0px"
	 viewBox="0 0 864 864" enable-background="new 0 0 864 864" xml:space="preserve">
<path fill="#449F85" stroke="#09070D" stroke-width="15" stroke-miterlimit="10" d="M445.1,762.4c0-0.1,0.1-0.1,0.1-0.2
	c46.5-62.4,175.8-280.8,233.1-346.9c0.9-1,1.6-2.1,2.2-3.2c6.5-11.6-6.4-24.4-22.9-24.4l-157.9-0.3l32.1-248.5
	c0-19.2-20.3-34.8-45.4-34.9L357,103.8c-25.1-0.1-45.5,15.5-45.5,34.7L350,387.1l-165.6-0.3c-14.8,0-27,10.2-24,21.3
	c0.7,2.6,2,5.1,3.9,7.4c57,66.3,185.3,285.3,231.6,347.9C405.4,776.1,428.3,783.8,445.1,762.4z"/>
</svg>
