<?xml version="1.0" encoding="utf-8"?>
<!-- Generator: Adobe Illustrator 18.1.1, SVG Export Plug-In . SVG Version: 6.00 Build 0)  -->
<svg version="1.1" id="Capa_1" xmlns="http://www.w3.org/2000/svg" xmlns:xlink="http://www.w3.org/1999/xlink" x="0px" y="0px"
	 viewBox="0 0 864 864" enable-background="new 0 0 864 864" xml:space="preserve">
<path fill="#871A1E" stroke="#000000" stroke-width="15" stroke-linejoin="round" stroke-miterlimit="10" d="M774.5,414.7L462,37
	c-10-12.1-25.8-19.2-42.7-19.2c-19.5,0-37.8,8.3-49.3,22.3l-90.3,109.2h-132l0.6,160.9L53.7,425.4c-13.5,16.5-0.3,39.7,22.7,39.7
	h40.2v380.4l125.7,0V486.4l397.4,0.8L638.7,848l85,0.8l0.1-383.7h22.1C775,465.1,791.8,435.6,774.5,414.7z"/>
<path fill="#449F85" stroke="#09070D" stroke-width="15" stroke-miterlimit="10" d="M580.1,627.5H422.9c-0.5,0-1,0.4-1,1v219.7
	c0,0.5,0.4,1,1,1h157.2c0.5,0,1-0.4,1-1V628.5C581,627.9,580.6,627.5,580.1,627.5z"/>
</svg>
