<?xml version="1.0" encoding="utf-8"?>
<!-- Generator: Adobe Illustrator 18.1.1, SVG Export Plug-In . SVG Version: 6.00 Build 0)  -->
<svg version="1.1" id="Capa_1" xmlns="http://www.w3.org/2000/svg" xmlns:xlink="http://www.w3.org/1999/xlink" x="0px" y="0px"
	 viewBox="0 0 864 864" enable-background="new 0 0 864 864" xml:space="preserve">
<path fill="#449F85" stroke="#09070D" stroke-width="15" stroke-miterlimit="10" d="M98.5,463.9c0.1,0,0.1,0.1,0.2,0.1
	c62.4,46.5,280.8,175.8,346.9,233.1c1,0.9,2.1,1.6,3.2,2.2c11.6,6.5,24.4-6.4,24.4-22.9l0.3-157.9l248.5,32.1
	c19.2,0,34.8-20.3,34.9-45.4l0.3-129.5c0.1-25.1-15.5-45.5-34.7-45.5l-248.6,38.5l0.3-165.6c0-14.8-10.2-27-21.3-24
	c-2.6,0.7-5.1,2-7.4,3.9c-66.3,57-285.3,185.3-347.9,231.6C84.8,424.3,77.1,447.1,98.5,463.9z"/>
</svg>
