<?xml version="1.0" encoding="utf-8"?>
<!-- Generator: Adobe Illustrator 18.1.1, SVG Export Plug-In . SVG Version: 6.00 Build 0)  -->
<svg version="1.1" id="Capa_1" xmlns="http://www.w3.org/2000/svg" xmlns:xlink="http://www.w3.org/1999/xlink" x="0px" y="0px"
	 viewBox="0 0 864 864" enable-background="new 0 0 864 864" xml:space="preserve">
<path fill="#449F85" stroke="#09070D" stroke-width="15" stroke-miterlimit="10" d="M743.6,415.8c-0.1,0-0.1-0.1-0.2-0.1
	C681,369.2,462.6,239.8,396.5,182.6c-1-0.9-2.1-1.6-3.2-2.2c-11.6-6.5-24.4,6.4-24.4,22.9l-0.3,157.9L120.1,329
	c-19.2,0-34.8,20.3-34.9,45.4l-0.3,129.5c-0.1,25.1,15.5,45.5,34.7,45.5l248.6-38.5l-0.3,165.6c0,14.8,10.2,27,21.3,24
	c2.6-0.7,5.1-2,7.4-3.9c66.3-57,285.3-185.3,347.9-231.6C757.3,455.4,765,432.5,743.6,415.8z"/>
</svg>
