<?xml version="1.0" encoding="utf-8"?>
<!-- Generator: Adobe Illustrator 18.1.1, SVG Export Plug-In . SVG Version: 6.00 Build 0)  -->
<svg version="1.1" id="Capa_1" xmlns="http://www.w3.org/2000/svg" xmlns:xlink="http://www.w3.org/1999/xlink" x="0px" y="0px"
	 viewBox="0 0 864 864" enable-background="new 0 0 864 864" xml:space="preserve">
<path fill="#449F85" stroke="#09070D" stroke-width="15" stroke-miterlimit="10" d="M397,117.3c0,0.1-0.1,0.1-0.1,0.2
	C350.4,179.9,221,398.3,163.8,464.4c-0.9,1-1.6,2.1-2.2,3.2c-6.5,11.6,6.4,24.4,22.9,24.4l157.9,0.3l-32.1,248.5
	c0,19.2,20.3,34.8,45.4,34.9l129.5,0.3c25.1,0.1,45.5-15.5,45.5-34.7l-38.5-248.6l165.6,0.3c14.8,0,27-10.2,24-21.3
	c-0.7-2.6-2-5.1-3.9-7.4C620.7,398,492.4,179,446.1,116.4C436.6,103.6,413.7,95.9,397,117.3z"/>
</svg>
