  0
SECTION
  2
HEADER
  9
$ACADVER
  1
AC1009
  9
$INSBASE
 10
0.0
 20
0.0
 30
0.0
  9
$EXTMIN
 10
0.0
 20
0.0
 30
0.0
  9
$EXTMAX
 10
0.0
 20
0.0
 30
0.0
  0
ENDSEC
  0
SECTION
  2
TABLES
  0
TABLE
  2
VPORT
 70
0
  0
ENDTAB
  0
TABLE
  2
LTYPE
 70
1
  0
LTYPE
  2
CONTINUOUS
 70
0
  3
Solid line
 72
65
 73
0
 40
0.0
  0
ENDTAB
  0
TABLE
  2
LAYER
 70
1
  0
LAYER
  2
0
 70
64
 62
7
  6
continuous
  0
ENDTAB
  0
TABLE
  2
STYLE
 70
1
  0
STYLE
  2
STANDARD
 70
0
 40
0
 41
1.0
 50
0.0
 71
0
 42
1
 3
ARIAL.TTF
 4

  0
ENDTAB
  0
TABLE
  2
VIEW
 70
0
  0
ENDTAB
  0
ENDSEC
  0
SECTION
  2
BLOCKS
  0
BLOCK
  8
0
  2
CHAMFER_CS
 70
0
 10
0.0
 20
0.0
 30
0.0
  3
CHAMFER_CS
  0
POLYLINE
  8
0
 62
0
 70
1
 66
1
 10
0.0
 20
0.0
 30
0.0
  0
VERTEX
  8
0
 10
19.5013559198
 20
-194.0
  0
VERTEX
  8
0
 10
-460.97164408
 20
-194.0
  0
VERTEX
  8
0
 10
-465.97164408
 20
-189.0
  0
VERTEX
  8
0
 10
-465.97164408
 20
189.0
  0
VERTEX
  8
0
 10
-460.97164408
 20
194.0
  0
VERTEX
  8
0
 10
19.5013559198
 20
194.0
  0
VERTEX
  8
0
 10
24.5013559198
 20
189.0
  0
VERTEX
  8
0
 10
24.5013559198
 20
-189.0
  0
SEQEND
  8
0
  0
CIRCLE
  8
0
 62
0
 10
-412.50564408
 20
-170.0
 30
-62.7
 40
1.5
  0
CIRCLE
  8
0
 62
0
 10
-392.50564408
 20
-170.0
 30
-62.7
 40
1.5
  0
CIRCLE
  8
0
 62
0
 10
-412.50564408
 20
170.0
 30
-62.7
 40
1.5
  0
CIRCLE
  8
0
 62
0
 10
-392.50564408
 20
170.0
 30
-62.7
 40
1.5
  0
CIRCLE
  8
0
 62
0
 10
-71.9986440802
 20
-170.0
 30
-62.7
 40
1.5
  0
CIRCLE
  8
0
 62
0
 10
-51.9986440802
 20
-170.0
 30
-62.7
 40
1.5
  0
CIRCLE
  8
0
 62
0
 10
-50.9986440802
 20
170.0
 30
-62.7
 40
1.5
  0
CIRCLE
  8
0
 62
0
 10
-70.9986440802
 20
170.0
 30
-62.7
 40
1.5
  0
CIRCLE
  8
0
 62
0
 10
-5.49864408022
 20
170.0
 30
-62.7
 40
1.5
  0
CIRCLE
  8
0
 62
0
 10
-25.4986440802
 20
170.0
 30
-62.7
 40
1.5
  0
CIRCLE
  8
0
 62
0
 10
-412.50564408
 20
-120.0
 30
-62.7
 40
1.5
  0
CIRCLE
  8
0
 62
0
 10
-392.50564408
 20
-120.0
 30
-62.7
 40
1.5
  0
CIRCLE
  8
0
 62
0
 10
-412.50564408
 20
119.999
 30
-62.7
 40
1.5
  0
CIRCLE
  8
0
 62
0
 10
-392.50564408
 20
119.999
 30
-62.7
 40
1.5
  0
CIRCLE
  8
0
 62
0
 10
-50.9986440802
 20
120.0
 30
-62.7
 40
1.5
  0
CIRCLE
  8
0
 62
0
 10
-25.4986440802
 20
-170.0
 30
-62.7
 40
1.5
  0
CIRCLE
  8
0
 62
0
 10
-5.49864408022
 20
-170.0
 30
-62.7
 40
1.5
  0
CIRCLE
  8
0
 62
0
 10
-71.9986440802
 20
-120.0
 30
-62.7
 40
1.5
  0
CIRCLE
  8
0
 62
0
 10
-51.9986440802
 20
-120.0
 30
-62.7
 40
1.5
  0
CIRCLE
  8
0
 62
0
 10
-70.9986440802
 20
120.0
 30
-62.7
 40
1.5
  0
CIRCLE
  8
0
 62
0
 10
-5.49864408022
 20
120.0
 30
-62.7
 40
1.5
  0
CIRCLE
  8
0
 62
0
 10
-25.4986440802
 20
120.0
 30
-62.7
 40
1.5
  0
CIRCLE
  8
0
 62
0
 10
-25.4986440802
 20
-120.0
 30
-62.7
 40
1.5
  0
CIRCLE
  8
0
 62
0
 10
-5.49864408022
 20
-120.0
 30
-62.7
 40
1.5
  0
CIRCLE
  8
0
 62
0
 10
-435.97164408
 20
170.0
 30
-62.7
 40
1.5
  0
CIRCLE
  8
0
 62
0
 10
-435.97164408
 20
-170.0
 30
-62.7
 40
1.5
  0
CIRCLE
  8
0
 62
0
 10
-435.97164408
 20
119.999
 30
-62.7
 40
1.5
  0
CIRCLE
  8
0
 62
0
 10
-435.97164408
 20
-120.0
 30
-62.7
 40
1.5
  0
POLYLINE
  8
0
 62
0
 70
1
 66
1
 10
0.0
 20
0.0
 30
0.0
  0
VERTEX
  8
0
 10
-48.2486440802
 20
-99.0
  0
VERTEX
  8
0
 10
-55.2486440802
 20
-106.0
  0
VERTEX
  8
0
 10
-365.50564408
 20
-106.0
  0
VERTEX
  8
0
 10
-372.50564408
 20
-99.0
  0
VERTEX
  8
0
 10
-372.50564408
 20
99.0
  0
VERTEX
  8
0
 10
-365.50564408
 20
106.0
  0
VERTEX
  8
0
 10
-55.2486440802
 20
106.0
  0
VERTEX
  8
0
 10
-48.2486440802
 20
99.0
  0
SEQEND
  8
0
  0
ENDBLK
  0
ENDSEC
  0
SECTION
  2
ENTITIES
  0
INSERT
  2
CHAMFER_CS
  8
0
 10
0.0
 20
0.0
 30
0.0
  0
ENDSEC
  0
EOF
